<svg xmlns="http://www.w3.org/2000/svg" version="1.0" preserveAspectRatio="xMidYMid meet" viewBox="46.5 70.04 524 476.97">

<g transform="translate(0.000000,612.000000) scale(0.100000,-0.100000)" fill="#000000" stroke="none">
<path d="M1954 5401 c-45 -27 -48 -35 -54 -131 l-5 -85 -585 -5 -585 -5 -55 -27 c-75 -37 -137 -100 -174 -178 l-31 -65 0 -1990 0 -1990 33 -67 c50 -103 118 -161 222 -192 48 -14 251 -16 1984 -16 2104 0 1992 -3 2109 56 28 15 70 39 92 54 58 40 679 667 715 721 16 25 42 77 57 115 l28 69 0 1630 0 1630 -22 47 c-32 70 -96 133 -176 173 l-70 35 -578 0 -579 0 0 78 c0 59 -5 84 -19 106 -36 55 -94 70 -151 41 -42 -22 -54 -50 -60 -140 l-5 -80 -957 -3 -958 -2 0 77 c0 63 -4 83 -22 109 -39 56 -98 69 -154 35z m-54 -530 c0 -77 -1 -80 -28 -96 -75 -44 -113 -177 -78 -269 50 -130 213 -191 330 -122 85 50 134 145 122 235 -8 55 -46 123 -86 151 -29 21 -30 24 -30 101 l0 79 960 0 960 0 0 -79 c0 -72 -2 -80 -24 -95 -45 -29 -87 -102 -93 -160 -15 -142 90 -259 232 -259 101 0 182 58 220 157 33 85 -2 204 -75 256 -29 21 -30 24 -30 101 l0 79 555 0 c600 0 597 0 627 -53 10 -16 14 -120 18 -405 l5 -382 -2398 0 -2398 0 3 379 c3 367 4 380 24 408 40 54 27 53 627 53 l557 0 0 -79z m3580 -1978 l0 -988 -24 -51 c-13 -28 -39 -63 -58 -77 -66 -51 -95 -57 -271 -57 -120 0 -178 -4 -217 -16 -101 -30 -179 -95 -227 -188 -26 -49 -27 -60 -33 -252 -8 -227 -18 -266 -88 -324 -78 -64 56 -60 -1952 -60 l-1827 0 -34 23 c-19 13 -39 38 -46 57 -9 27 -12 383 -12 1471 -1 790 2 1439 6 1442 3 4 1081 7 2395 7 l2388 0 0 -987z m-176 -1410 c7 -7 -402 -423 -416 -423 -5 0 -8 78 -8 174 0 173 0 175 26 205 14 17 40 35 57 40 38 11 330 14 341 4z"/>
<path d="M3640 3583 c-65 -24 -135 -101 -209 -233 -80 -140 -111 -202 -111 -217 0 -40 231 -233 280 -233 26 0 34 16 59 110 26 98 58 159 98 186 24 16 47 19 160 19 147 0 168 8 204 74 25 47 14 61 -73 101 -77 35 -118 65 -118 86 0 7 -14 29 -30 48 -53 60 -179 88 -260 59z"/>
<path d="M1564 3125 c-3 -8 -3 -18 0 -24 7 -10 271 -161 283 -161 5 0 20 -11 35 -25 33 -30 48 -97 48 -214 0 -200 -79 -329 -286 -467 -46 -31 -91 -66 -99 -77 -12 -17 -15 -63 -15 -238 0 -249 -3 -240 90 -247 54 -4 59 -2 75 21 16 25 16 27 -2 51 -10 14 -21 26 -25 26 -22 1 -4 21 25 28 48 12 49 50 3 86 -30 23 -36 33 -36 65 0 55 28 134 62 175 40 49 97 86 197 129 116 50 224 120 263 169 18 23 47 69 64 103 19 38 41 65 58 73 25 13 33 11 78 -12 57 -30 71 -32 90 -13 25 25 57 37 100 37 60 0 213 -41 338 -90 58 -22 145 -52 195 -64 49 -13 94 -31 100 -40 7 -11 1 -40 -19 -103 -44 -133 -71 -189 -119 -246 -136 -159 -183 -415 -80 -425 37 -4 49 20 33 62 -14 38 -13 101 4 140 36 87 174 148 219 98 10 -10 22 -45 27 -78 6 -32 16 -72 22 -87 13 -33 54 -57 97 -57 21 0 32 -6 36 -20 11 -36 57 -51 131 -44 76 8 88 23 51 62 -55 60 -77 151 -57 245 12 59 55 134 81 142 19 6 241 -40 273 -57 47 -25 47 -51 1 -166 -40 -100 -53 -178 -35 -212 10 -19 18 -22 52 -17 51 7 54 11 29 36 -12 12 -21 31 -21 43 0 19 64 156 79 168 3 3 23 31 45 63 34 50 42 57 72 57 61 0 328 -51 359 -69 37 -21 65 -74 65 -124 0 -34 3 -38 22 -35 29 4 32 24 18 93 -14 67 -46 108 -111 140 -99 51 -161 190 -124 283 23 55 55 75 133 78 55 2 69 7 93 30 16 15 29 32 29 38 0 26 -78 127 -110 142 -41 20 -50 31 -50 64 0 24 -1 24 -37 -11 -21 -20 -58 -51 -83 -69 -25 -19 -60 -49 -78 -67 -79 -79 -144 -80 -367 -5 -82 27 -194 58 -247 67 l-96 17 15 51 c8 29 25 77 38 107 15 35 20 61 15 75 -4 11 -49 45 -101 75 -64 38 -119 81 -175 138 -95 95 -101 97 -227 57 -127 -41 -229 -47 -497 -29 -129 8 -271 12 -315 9 -92 -7 -232 -38 -275 -60 -16 -8 -43 -15 -60 -15 -45 0 -160 41 -264 94 -94 48 -123 55 -132 31z"/>
</g>
</svg>